<?xml version="1.0" standalone="no"?>
<!DOCTYPE svg PUBLIC "-//W3C//DTD SVG 20010904//EN"
 "http://www.w3.org/TR/2001/REC-SVG-20010904/DTD/svg10.dtd">
<svg version="1.0" xmlns="http://www.w3.org/2000/svg"
 width="256.000000pt" height="256.000000pt" viewBox="0 0 256.000000 256.000000"
 preserveAspectRatio="xMidYMid meet">
<metadata>
Created by potrace 1.10, written by Peter Selinger 2001-2011
</metadata>
<g transform="translate(0.000000,256.000000) scale(0.100000,-0.100000)"
fill="#000000" stroke="none">
<path d="M1318 2036 c-36 -30 -82 -76 -101 -101 -38 -50 -39 -49 -53 28 -3 20
-9 39 -13 42 -12 7 -74 -103 -86 -153 -11 -43 -13 -45 -24 -25 -6 12 -11 29
-11 37 0 9 -4 16 -10 16 -16 0 -12 -113 7 -169 14 -45 15 -64 5 -140 -18 -136
-16 -155 19 -196 29 -33 30 -35 10 -35 -17 0 -93 31 -109 45 -1 1 3 16 9 33 8
25 7 38 -6 66 -10 20 -20 36 -24 36 -12 0 -47 -42 -65 -77 -30 -59 -13 -161
23 -139 5 3 11 0 14 -8 3 -8 44 -33 91 -56 47 -22 86 -44 86 -48 -1 -4 -7 -29
-14 -57 -15 -55 -14 -54 -101 -40 -63 10 -75 -5 -87 -113 l-11 -92 -48 0 c-39
0 -50 -4 -60 -22 -10 -18 -8 -24 10 -39 11 -9 40 -20 64 -24 23 -3 63 -11 90
-17 34 -9 50 -9 58 -1 6 6 12 47 13 92 0 45 1 81 2 81 1 0 39 -17 85 -39 72
-33 87 -45 108 -81 46 -82 74 -94 156 -66 89 30 92 30 100 -11 10 -53 22 -73
46 -73 30 0 42 44 34 125 -10 96 -18 108 -63 101 -126 -19 -131 -19 -138 9
-11 44 20 191 46 218 4 5 70 22 145 37 75 16 145 36 154 44 10 9 25 16 33 16
38 0 73 105 44 129 -9 7 -16 22 -16 32 0 11 -7 19 -15 19 -8 0 -15 5 -15 10 0
6 -7 10 -15 10 -8 0 -15 -4 -15 -10 0 -5 -8 -14 -17 -19 -16 -8 -18 -3 -16 47
1 32 2 62 2 69 1 6 21 15 46 19 46 6 60 20 28 26 -12 2 1 14 40 36 68 38 75
62 19 62 -49 0 -55 6 -36 36 18 27 46 115 39 122 -2 3 -23 -7 -46 -22 -22 -15
-43 -25 -46 -22 -3 3 7 36 21 73 14 38 26 72 26 76 0 14 -56 6 -125 -17 -38
-14 -71 -23 -73 -21 -2 1 5 32 14 69 9 37 14 69 11 72 -7 7 -62 -22 -117 -61
l-45 -33 3 42 c2 23 0 56 -5 74 l-8 33 -67 -55z m62 -51 c0 -41 2 -75 4 -75 2
0 20 15 39 33 20 17 55 43 78 56 l42 23 -8 -38 c-19 -97 -22 -114 -19 -114 2
0 37 11 78 25 41 14 84 25 95 25 21 0 21 0 2 -47 -44 -114 -37 -135 33 -88 44
30 46 18 6 -57 l-30 -57 40 -11 c22 -6 38 -15 35 -21 -4 -5 -29 -21 -57 -35
-34 -17 -47 -29 -39 -34 9 -5 4 -10 -14 -14 -20 -5 -40 0 -74 19 -170 94 -294
129 -445 123 l-100 -3 -13 50 c-18 71 -15 100 5 53 21 -48 32 -48 32 -2 0 35
30 117 59 164 16 24 16 23 32 -45 l16 -70 17 33 c18 34 161 182 177 182 5 0 9
-34 9 -75z m-127 -323 c26 -1 47 -6 47 -10 0 -5 -33 -8 -72 -6 -53 1 -65 0
-45 -6 16 -5 76 -8 134 -7 75 0 107 -3 112 -12 5 -7 11 -12 15 -11 11 3 69
-22 95 -42 25 -19 12 -25 -20 -8 -12 7 -19 7 -19 1 0 -10 62 -31 93 -31 10 0
15 4 12 10 -3 6 1 7 10 4 34 -13 8 -29 -43 -26 -33 3 -52 0 -52 -7 0 -14 -27
-15 -32 -1 -2 6 -16 6 -39 -1 -45 -14 -100 -5 -131 22 l-23 20 30 -6 c50 -12
163 -16 140 -6 -11 5 -34 10 -51 10 -17 1 -45 6 -63 12 -28 10 -35 9 -54 -9
-17 -16 -27 -18 -47 -10 -13 5 -28 14 -32 21 -5 7 -8 8 -8 1 0 -18 -88 -17
-113 1 -21 16 -19 16 42 10 74 -8 79 9 5 20 -39 5 -44 9 -33 22 11 13 9 14
-17 11 -24 -2 -29 -8 -32 -35 -2 -23 3 -35 19 -47 28 -19 19 -32 -10 -14 -18
11 -21 21 -19 58 l3 45 47 -1 c26 0 45 3 42 8 -3 4 -12 8 -20 8 -8 0 -14 3
-14 8 0 7 36 8 143 4z m-183 -157 c15 -19 40 -19 109 0 58 15 53 16 158 -44
32 -18 35 -18 149 6 64 13 122 22 130 19 17 -6 18 -39 3 -67 -8 -15 -19 -20
-44 -18 -26 3 -38 -3 -59 -28 -36 -43 -50 -46 -149 -29 -47 9 -133 18 -192 22
-93 6 -108 10 -120 28 -20 30 -28 72 -21 101 7 29 18 32 36 10z m-122 -52 c9
-7 11 -13 5 -13 -6 0 -11 -10 -11 -22 0 -34 -42 -100 -61 -96 -20 4 -23 84 -3
100 6 6 12 17 12 26 0 8 8 24 18 35 16 19 17 19 20 1 2 -11 11 -25 20 -31z
m472 27 c0 -5 -16 -10 -35 -10 -19 0 -35 5 -35 10 0 6 16 10 35 10 19 0 35 -4
35 -10z m287 -117 c-1 26 1 47 5 47 5 0 8 -21 9 -47 1 -37 3 -42 8 -23 5 17 9
21 14 13 5 -7 -1 -34 -12 -59 -19 -42 -23 -46 -50 -42 -17 2 -28 1 -25 -3 10
-16 -38 -21 -54 -5 -13 12 -13 20 -4 38 6 13 13 34 15 48 l3 25 12 -25 c17
-36 41 -65 49 -57 3 4 -3 17 -15 30 -23 25 -28 62 -12 87 7 11 10 7 10 -17 0
-17 5 -35 11 -39 9 -5 10 3 5 30 -12 61 7 67 21 6 l12 -55 -2 48z m-77 17 c0
-11 -7 -20 -15 -20 -8 0 -15 -7 -15 -15 0 -8 -2 -15 -4 -15 -9 0 -113 -21
-128 -26 -10 -3 -18 -1 -18 4 0 6 11 13 24 16 13 3 38 19 56 36 18 16 36 27
41 24 5 -3 17 0 26 5 26 15 33 13 33 -9z m-630 -35 c43 -22 65 -45 43 -45 -19
0 -113 52 -108 60 8 14 9 13 65 -15z m155 -6 c4 -6 5 -13 2 -16 -8 -8 -67 7
-67 18 0 13 57 11 65 -2z m78 4 c-24 -5 -38 -32 -24 -46 5 -5 11 -1 15 11 7
21 31 22 146 6 l45 -6 -35 -17 c-29 -13 -38 -26 -53 -71 -10 -30 -28 -65 -39
-77 -12 -13 -16 -23 -10 -23 7 0 33 22 59 50 26 27 49 48 51 45 4 -4 -25 -44
-62 -87 -39 -44 -61 -126 -42 -156 4 -7 -6 -15 -26 -21 l-33 -9 30 -1 c40 -1
71 -51 54 -84 -12 -22 -12 -22 10 -3 21 19 21 19 21 0 0 -14 3 -15 8 -6 5 7
16 10 25 7 9 -4 24 -2 34 4 15 9 12 10 -19 11 -21 0 -38 5 -38 10 0 17 77 12
84 -6 15 -38 7 -53 -26 -53 -18 1 -46 -4 -61 -10 -46 -18 -62 -13 -93 28 -16
22 -40 46 -54 54 -29 18 -97 107 -81 107 6 0 11 7 11 15 0 8 4 15 8 15 10 0
32 113 32 167 0 21 5 44 12 51 7 7 41 13 78 14 l65 2 -62 3 c-51 3 -63 7 -68
23 -11 35 4 60 33 59 22 -1 23 -2 5 -6z m-120 -35 c12 -7 32 -11 43 -9 12 1
24 -5 28 -14 3 -10 2 -14 -5 -10 -6 4 -9 1 -8 -6 1 -8 -1 -21 -5 -30 -4 -9 -8
-36 -9 -59 -1 -26 -7 -45 -15 -48 -10 -3 -13 6 -12 34 3 62 -1 71 -15 39 -20
-44 -18 -63 11 -92 29 -28 24 -46 -5 -19 -18 17 -20 17 -29 -1 -20 -34 -23 -5
-7 56 9 36 13 77 10 99 l-6 37 19 -24 19 -23 -2 22 c-1 12 -12 31 -26 41 -27
21 -19 25 14 7z m477 -5 c0 -9 -120 -73 -135 -73 -6 0 1 9 15 20 21 16 22 20
7 20 -10 0 -32 -7 -48 -16 -38 -19 -46 -14 -18 12 26 24 179 55 179 37z m-208
-46 c-18 -18 -30 -36 -27 -39 3 -3 -3 -11 -12 -19 -14 -10 -16 -10 -6 0 6 7 9
20 6 27 -6 17 14 43 42 54 31 13 31 12 -3 -23z m183 -52 c-27 -7 -61 -13 -75
-13 -14 0 -4 6 25 13 28 7 61 13 75 13 14 0 4 -6 -25 -13z m-116 -8 c8 -11 1
-16 -35 -24 l-45 -10 22 23 c25 27 42 30 58 11z m-532 -197 c2 -64 -1 -80 -12
-80 -11 0 -15 13 -15 54 0 46 13 106 22 106 2 0 4 -36 5 -80z m198 57 c11 -9
14 -16 8 -20 -6 -4 -22 2 -34 13 -18 14 -20 19 -8 20 8 0 23 -6 34 -13z m196
-48 l-9 -44 -1 41 c-1 22 2 44 6 47 12 12 13 1 4 -44z m-332 24 c10 -17 10
-17 11 0 0 13 8 17 36 17 37 0 96 -34 72 -42 -9 -3 -5 -17 15 -46 15 -23 27
-44 27 -46 0 -7 -121 44 -134 56 -22 19 48 6 77 -14 l30 -22 -23 32 c-15 20
-32 32 -47 32 -15 0 -23 6 -24 18 -1 16 -2 16 -6 -1 -2 -9 -8 -15 -13 -12 -11
7 -33 -61 -32 -98 1 -27 -1 -29 -30 -23 -17 3 -37 6 -44 6 -8 0 -14 5 -14 11
0 6 11 8 28 4 l29 -6 2 67 c1 38 4 71 7 76 8 13 22 9 33 -9z m-46 -164 c22 -6
37 -15 34 -22 -7 -22 -54 -19 -92 7 l-38 26 29 0 c16 0 46 -5 67 -11z m327
-82 c0 -16 -20 5 -51 51 l-30 47 40 -45 c23 -25 41 -49 41 -53z m220 57 c0
-21 -4 -33 -10 -29 -11 7 -12 3 -4 -19 3 -8 12 -12 21 -9 11 4 14 2 9 -5 -4
-7 -2 -12 4 -12 6 0 8 -5 4 -11 -5 -8 -9 -8 -14 1 -6 9 -11 7 -19 -6 -10 -17
-11 -17 -12 6 -6 90 -4 120 8 120 8 0 13 -13 13 -36z"/>
<path d="M1229 1883 c-13 -26 -30 -54 -36 -61 -15 -16 -16 -58 -2 -87 7 -15 8
-10 4 20 l-4 40 14 -30 15 -30 -1 35 c-3 61 0 76 26 114 27 40 29 46 16 46 -4
0 -19 -21 -32 -47z"/>
<path d="M1276 1808 c10 -77 26 -106 20 -38 l-4 55 14 -34 c8 -18 17 -31 20
-28 9 8 -34 97 -46 97 -7 0 -8 -17 -4 -52z"/>
<path d="M1448 1805 c-21 -14 -42 -34 -48 -45 -15 -29 -2 -25 23 6 11 15 35
33 54 40 18 8 33 16 33 19 0 12 -28 3 -62 -20z"/>
<path d="M1541 1704 c-19 -8 -31 -17 -28 -20 3 -3 14 -1 25 5 33 18 50 12 20
-6 -15 -10 -30 -23 -32 -29 -2 -6 17 3 44 20 67 43 48 64 -29 30z"/>
<path d="M1274 1604 c-18 -14 -18 -15 6 -7 35 11 123 7 149 -6 12 -7 21 -8 21
-2 0 29 -143 42 -176 15z"/>
<path d="M1175 1432 c16 -66 84 -84 115 -30 19 36 9 44 -63 51 l-59 6 7 -27z
m105 -17 c0 -21 -28 -38 -55 -31 -17 4 -22 11 -18 22 12 31 73 38 73 9z"/>
<path d="M1163 1050 c3 -11 0 -20 -6 -20 -14 -1 22 -30 37 -30 5 0 2 6 -9 13
-12 10 -14 16 -7 21 17 10 15 23 -4 30 -13 5 -15 2 -11 -14z"/>
<path d="M1161 961 c19 -22 38 -40 43 -40 5 -1 3 5 -3 13 -9 11 -9 15 1 19 7
3 3 6 -9 6 -13 1 -28 10 -35 21 -7 11 -17 20 -22 20 -4 0 7 -18 25 -39z"/>
</g>
</svg>
